<svg xmlns="http://www.w3.org/2000/svg" xmlns:xlink="http://www.w3.org/1999/xlink" width="1280" zoomAndPan="magnify" viewBox="0 0 960 239.999995" height="320" preserveAspectRatio="xMidYMid meet" version="1.0"><defs><g/></defs><g fill="#000000" fill-opacity="1"><g transform="translate(238.102027, 161.74949)"><g><path d="M 15.59375 -107 L 17 -118.796875 L 17.203125 -125 C 17.203125 -126.726562 17.535156 -128.0625 18.203125 -129 L 20.203125 -131.796875 C 23.796875 -134.597656 26.125 -136.195312 27.1875 -136.59375 C 28.257812 -137 29.828125 -136.96875 31.890625 -136.5 C 33.960938 -136.03125 35.195312 -135.597656 35.59375 -135.203125 L 37.796875 -133.40625 C 38.992188 -132.738281 39.59375 -131.671875 39.59375 -130.203125 C 40.257812 -129.398438 40.460938 -128.800781 40.203125 -128.40625 C 39.398438 -127.46875 38.066406 -119.597656 36.203125 -104.796875 L 34.59375 -77.59375 L 33.59375 -72.203125 C 33.59375 -70.460938 33.660156 -69.460938 33.796875 -69.203125 L 33.796875 -65.59375 C 33.535156 -62.925781 33.269531 -61.257812 33 -60.59375 C 33 -59.925781 32.863281 -59.195312 32.59375 -58.40625 C 32.863281 -58.132812 33 -57.097656 33 -55.296875 C 33 -53.492188 32.800781 -52.394531 32.40625 -52 C 32.132812 -49.863281 32 -47.828125 32 -45.890625 C 32 -43.960938 32.164062 -41.960938 32.5 -39.890625 C 32.832031 -37.828125 32.929688 -35.796875 32.796875 -33.796875 L 33.59375 -26.203125 L 33.59375 -23.203125 C 33.863281 -20.796875 34 -18.863281 34 -17.40625 L 35 -7 L 35.796875 -1.59375 C 36.203125 0.664062 36.035156 2.863281 35.296875 5 C 34.566406 7.132812 33.46875 8.46875 32 9 C 27.863281 10.726562 23.332031 9.59375 18.40625 5.59375 L 16.796875 5.59375 C 15.867188 4.53125 15.132812 3.066406 14.59375 1.203125 C 13.53125 0.671875 13.066406 -0.257812 13.203125 -1.59375 C 13.335938 -2.925781 13.070312 -4.125 12.40625 -5.1875 C 11.738281 -6.257812 11.40625 -7.195312 11.40625 -8 C 11.40625 -9.726562 11.269531 -11.257812 11 -12.59375 L 11.203125 -14.203125 C 10.796875 -14.597656 10.59375 -15.195312 10.59375 -16 L 10.203125 -19.59375 L 10.203125 -21.203125 C 10.203125 -22.265625 10.164062 -22.992188 10.09375 -23.390625 C 10.03125 -23.796875 10.195312 -24.46875 10.59375 -25.40625 C 10.195312 -25.9375 10.132812 -27.867188 10.40625 -31.203125 C 11.195312 -41.460938 11.59375 -48.53125 11.59375 -52.40625 L 11.796875 -57.203125 L 11.796875 -63 C 11.929688 -66.195312 12.03125 -70.257812 12.09375 -75.1875 C 12.164062 -80.125 12.398438 -82.796875 12.796875 -83.203125 L 12.59375 -85 C 12.59375 -88.195312 13.09375 -92.5625 14.09375 -98.09375 C 15.09375 -103.632812 15.59375 -106.601562 15.59375 -107 Z M 15.59375 -107 "/></g></g></g><g fill="#000000" fill-opacity="1"><g transform="translate(270.501121, 161.74949)"><g><path d="M 20 -125.40625 C 28.9375 -125.40625 35.203125 -123.601562 38.796875 -120 C 38.796875 -117.726562 37.265625 -113.128906 34.203125 -106.203125 C 33.671875 -103.929688 32.800781 -102.128906 31.59375 -100.796875 L 29 -98.203125 C 28.332031 -97.796875 27.664062 -97.59375 27 -97.59375 C 22.195312 -96.394531 18.460938 -97.332031 15.796875 -100.40625 C 15.265625 -101.195312 14.628906 -101.789062 13.890625 -102.1875 C 13.160156 -102.59375 12.597656 -103.796875 12.203125 -105.796875 C 11.003906 -107.535156 10.40625 -108.867188 10.40625 -109.796875 C 10.132812 -118.066406 13.132812 -123.269531 19.40625 -125.40625 Z M 18.40625 -78.203125 C 19.738281 -78.867188 22.867188 -78.203125 27.796875 -76.203125 C 28.328125 -75.671875 29.128906 -75.132812 30.203125 -74.59375 L 33.40625 -72 C 33.9375 -71.46875 34.203125 -70.601562 34.203125 -69.40625 L 34.203125 -51.796875 C 34.203125 -49.128906 34.066406 -46.726562 33.796875 -44.59375 L 33.796875 -43.40625 C 33.398438 -37.9375 33.734375 -25.601562 34.796875 -6.40625 C 35.203125 -2.664062 34.335938 -0.394531 32.203125 0.40625 C 29.929688 0.40625 28.460938 0.0703125 27.796875 -0.59375 C 27.265625 -0.863281 26.800781 -1 26.40625 -1 L 25 -1 L 23.796875 -0.59375 C 23.398438 -0.59375 22.664062 -0.894531 21.59375 -1.5 C 20.53125 -2.101562 19.832031 -2.738281 19.5 -3.40625 C 19.164062 -4.070312 18.597656 -4.46875 17.796875 -4.59375 C 16.328125 -5.132812 15.53125 -6.132812 15.40625 -7.59375 C 13.53125 -11.195312 12.5625 -13.332031 12.5 -14 C 12.4375 -14.664062 12.203125 -15.398438 11.796875 -16.203125 L 10.796875 -33.59375 C 10.796875 -35.59375 10.929688 -37.128906 11.203125 -38.203125 L 11.203125 -43 C 11.335938 -44.46875 11.46875 -47.164062 11.59375 -51.09375 C 11.726562 -55.03125 11.929688 -58.195312 12.203125 -60.59375 C 11.929688 -64.0625 11.796875 -66.394531 11.796875 -67.59375 C 11.796875 -68.800781 11.863281 -69.671875 12 -70.203125 C 10.53125 -71.671875 10.597656 -73.671875 12.203125 -76.203125 C 13.929688 -77.535156 15.597656 -78.203125 17.203125 -78.203125 Z M 18.40625 -78.203125 "/></g></g></g><g fill="#000000" fill-opacity="1"><g transform="translate(300.300278, 161.74949)"><g><path d="M 54.203125 -62.796875 L 53.59375 -63 C 53.863281 -62.863281 54.066406 -62.796875 54.203125 -62.796875 Z M 29 -11.59375 L 29 -9.796875 C 32.0625 -5.660156 33.660156 -3.59375 33.796875 -3.59375 C 34.460938 -3.59375 35.992188 -3.992188 38.390625 -4.796875 C 38.523438 -4.796875 39.222656 -5.425781 40.484375 -6.6875 C 41.753906 -7.957031 42.660156 -8.796875 43.203125 -9.203125 C 44.796875 -10.128906 45.859375 -10.726562 46.390625 -11 C 46.390625 -12.0625 46.859375 -13.160156 47.796875 -14.296875 C 48.734375 -15.429688 49.566406 -16.566406 50.296875 -17.703125 C 51.023438 -18.835938 51.523438 -19.671875 51.796875 -20.203125 C 52.597656 -21.265625 52.863281 -21.796875 52.59375 -21.796875 C 52.863281 -22.328125 53.265625 -23.460938 53.796875 -25.203125 L 55.796875 -29.796875 L 58 -39.796875 C 58.257812 -40.734375 57.925781 -43.664062 57 -48.59375 L 57 -50.40625 C 56.726562 -50.800781 56.59375 -51.195312 56.59375 -51.59375 L 56.59375 -51.796875 L 56.390625 -53.796875 C 56.390625 -54.460938 56.191406 -55.597656 55.796875 -57.203125 C 55.523438 -58.398438 54.722656 -60.332031 53.390625 -63 L 51.203125 -63 C 48.796875 -61.800781 46.992188 -60.535156 45.796875 -59.203125 C 44.328125 -57.335938 42.457031 -54.003906 40.1875 -49.203125 C 37.925781 -44.398438 36.394531 -40.066406 35.59375 -36.203125 L 34.390625 -31.40625 C 32.660156 -27.800781 31.53125 -23.664062 31 -19 L 30 -16.203125 Z M 74.59375 -69 C 77.257812 -63.269531 78.59375 -58.46875 78.59375 -54.59375 C 78.59375 -46.863281 77.925781 -41 76.59375 -37 C 76.59375 -35.53125 76.460938 -34.394531 76.203125 -33.59375 C 74.992188 -24.800781 73.457031 -18.269531 71.59375 -14 C 70.925781 -13.0625 70.191406 -11.59375 69.390625 -9.59375 C 68.597656 -7.332031 66.597656 -4.734375 63.390625 -1.796875 C 63.390625 -1.398438 62.390625 -0.171875 60.390625 1.890625 C 58.390625 3.960938 55.257812 5.664062 51 7 C 46.0625 8.601562 42.859375 9.40625 41.390625 9.40625 C 33.796875 10.601562 28.265625 9.46875 24.796875 6 L 24.59375 6.203125 C 21.925781 10.867188 18.726562 12.269531 15 10.40625 C 12.726562 9.195312 11.425781 8.394531 11.09375 8 C 10.757812 7.601562 10.523438 6.738281 10.390625 5.40625 C 9.460938 3 9.128906 0.195312 9.390625 -3 L 10.390625 -9.59375 C 9.992188 -11.863281 9.929688 -13.863281 10.203125 -15.59375 L 10.203125 -17 C 10.460938 -19.664062 10.660156 -24.765625 10.796875 -32.296875 C 10.929688 -39.828125 11.164062 -44.425781 11.5 -46.09375 C 11.832031 -47.757812 12 -49.328125 12 -50.796875 C 13.59375 -69.066406 14.488281 -78.832031 14.6875 -80.09375 C 14.894531 -81.363281 15 -85.664062 15 -93 L 15 -104 C 15 -106.132812 14.960938 -107.734375 14.890625 -108.796875 C 14.828125 -109.867188 15.0625 -110.601562 15.59375 -111 C 14.53125 -114.0625 14.332031 -117.53125 15 -121.40625 L 15 -123.796875 C 14.726562 -126.328125 15.257812 -128.726562 16.59375 -131 C 17.53125 -132.195312 19.394531 -133.328125 22.1875 -134.390625 C 24.988281 -135.460938 27.328125 -136.066406 29.203125 -136.203125 L 30.203125 -136.203125 C 31.929688 -136.203125 33.460938 -135.734375 34.796875 -134.796875 C 36.398438 -134.128906 37.203125 -132.53125 37.203125 -130 C 37.460938 -129.195312 37.460938 -128.332031 37.203125 -127.40625 C 37.328125 -126.46875 36.691406 -117.03125 35.296875 -99.09375 C 33.898438 -81.164062 33.203125 -71.367188 33.203125 -69.703125 C 33.203125 -68.035156 33.164062 -66.96875 33.09375 -66.5 C 33.03125 -66.03125 33 -65.726562 33 -65.59375 C 33.664062 -65.863281 34.0625 -66.332031 34.1875 -67 C 34.320312 -67.664062 34.59375 -68.132812 35 -68.40625 C 37.257812 -70 38.390625 -71.128906 38.390625 -71.796875 C 38.390625 -71.929688 38.722656 -72.265625 39.390625 -72.796875 C 40.054688 -73.328125 40.457031 -73.59375 40.59375 -73.59375 C 40.863281 -74 41.332031 -74.269531 42 -74.40625 L 45.59375 -76.203125 C 45.726562 -77.003906 47.660156 -77.367188 51.390625 -77.296875 C 55.128906 -77.234375 57.398438 -76.9375 58.203125 -76.40625 C 59.535156 -75.738281 60.429688 -75.300781 60.890625 -75.09375 C 61.359375 -74.894531 61.828125 -74.757812 62.296875 -74.6875 C 62.765625 -74.625 64.597656 -74.0625 67.796875 -73 C 69.265625 -73 70 -72.800781 70 -72.40625 C 70.53125 -72.132812 70.929688 -72 71.203125 -72 C 73.460938 -70.664062 74.59375 -69.664062 74.59375 -69 Z M 74.59375 -69 "/></g></g></g><g fill="#000000" fill-opacity="1"><g transform="translate(371.098341, 161.74949)"><g><path d="M 57.796875 -58.796875 C 58.460938 -63.992188 58.660156 -66.796875 58.390625 -67.203125 C 57.722656 -66.929688 56.925781 -66.195312 56 -65 L 49.390625 -57.59375 C 42.460938 -48.925781 39 -43.796875 39 -42.203125 C 39 -41.929688 38.53125 -40.863281 37.59375 -39 L 37.796875 -35.796875 L 37.390625 -27.203125 L 37.390625 -25 C 37.390625 -19.269531 37.59375 -15.132812 38 -12.59375 C 38.132812 -13 39.265625 -13.867188 41.390625 -15.203125 L 44.796875 -19.796875 C 48.265625 -24.066406 50.460938 -27.132812 51.390625 -29 C 54.328125 -37.9375 55.796875 -43.003906 55.796875 -44.203125 C 55.796875 -46.066406 56.328125 -48.734375 57.390625 -52.203125 C 57.390625 -53.398438 57.523438 -54.800781 57.796875 -56.40625 Z M 15 -62 L 15.796875 -71.203125 C 16.191406 -72.265625 16.257812 -73.664062 16 -75.40625 L 17.390625 -83.59375 C 17.390625 -84.800781 17.320312 -86.101562 17.1875 -87.5 C 17.0625 -88.894531 17.128906 -89.863281 17.390625 -90.40625 C 17.929688 -91.46875 19.332031 -92.398438 21.59375 -93.203125 L 20.796875 -93.203125 C 22.128906 -94.003906 23.992188 -94.070312 26.390625 -93.40625 C 28.796875 -92.738281 30.796875 -92.132812 32.390625 -91.59375 C 33.328125 -90.394531 34.53125 -89.0625 36 -87.59375 L 36.203125 -81.203125 C 36.203125 -77.867188 36.398438 -74.398438 36.796875 -70.796875 C 36.660156 -69.328125 36.660156 -68.394531 36.796875 -68 L 40.203125 -71.59375 C 40.328125 -71.863281 41.820312 -73.332031 44.6875 -76 C 47.5625 -78.664062 49.398438 -80.332031 50.203125 -81 C 50.203125 -81.664062 51 -82.195312 52.59375 -82.59375 C 56.0625 -83.394531 58.992188 -83.425781 61.390625 -82.6875 C 63.796875 -81.957031 65.128906 -81.59375 65.390625 -81.59375 L 72.796875 -78.40625 C 72.796875 -77.863281 73.460938 -77.394531 74.796875 -77 L 76.59375 -76 C 77.257812 -76 78.128906 -75.53125 79.203125 -74.59375 C 80.796875 -74.332031 81.394531 -73.203125 81 -71.203125 C 81 -70.671875 81.195312 -70.132812 81.59375 -69.59375 L 81.59375 -64.796875 C 81.59375 -62.660156 80.957031 -58.894531 79.6875 -53.5 C 78.425781 -48.101562 77.628906 -44.9375 77.296875 -44 C 76.960938 -43.0625 76.5625 -41.859375 76.09375 -40.390625 C 75.625 -38.929688 75.125 -37.535156 74.59375 -36.203125 C 73.925781 -33.929688 72.59375 -30.828125 70.59375 -26.890625 C 68.59375 -22.960938 66.59375 -19.863281 64.59375 -17.59375 C 59.925781 -11.0625 54.726562 -5.863281 49 -2 C 42.726562 0.394531 38.796875 1.796875 37.203125 2.203125 C 36.796875 2.203125 36.796875 4.601562 37.203125 9.40625 L 37.203125 23.796875 L 37.796875 32.59375 L 38 41.59375 C 38.257812 46 38.125 48.46875 37.59375 49 L 35.203125 51 C 33.460938 51.664062 31.925781 51.734375 30.59375 51.203125 C 27.925781 50.398438 26.328125 49.800781 25.796875 49.40625 C 25.265625 49.40625 24.398438 48.867188 23.203125 47.796875 L 21 47 C 19.132812 47.269531 18 46.800781 17.59375 45.59375 C 16.257812 44.53125 15.59375 43.597656 15.59375 42.796875 L 12.59375 38.40625 C 11.789062 36.40625 11.390625 34.535156 11.390625 32.796875 C 10.597656 29.867188 10.332031 27.601562 10.59375 26 L 10.203125 18.40625 L 10.203125 7.796875 C 10.203125 4.203125 10.066406 1.867188 9.796875 0.796875 C 9.523438 -0.00390625 9.660156 -7.070312 10.203125 -20.40625 C 10.597656 -23.070312 10.796875 -24.738281 10.796875 -25.40625 L 13.796875 -50 L 14.390625 -56.796875 L 14.390625 -58.40625 C 14.796875 -60 15 -61.195312 15 -62 Z M 15 -62 "/></g></g></g><g fill="#000000" fill-opacity="1"><g transform="translate(442.696374, 161.74949)"><g><path d="M 45.59375 -59 C 44.664062 -64.332031 42.066406 -66.800781 37.796875 -66.40625 C 35.398438 -66.269531 33.332031 -64.664062 31.59375 -61.59375 C 29.195312 -56.925781 28.164062 -50.894531 28.5 -43.5 C 28.832031 -36.101562 29.363281 -30.769531 30.09375 -27.5 C 30.832031 -24.226562 32.132812 -21.394531 34 -19 C 35.0625 -17.132812 36.660156 -16.269531 38.796875 -16.40625 C 42.535156 -16.40625 45.269531 -19.535156 47 -25.796875 L 48.59375 -30.59375 C 49.257812 -31.257812 49.394531 -31.925781 49 -32.59375 C 50.332031 -35.925781 51.066406 -39.863281 51.203125 -44.40625 C 49.867188 -45.332031 49.066406 -46.195312 48.796875 -47 C 47.992188 -49.269531 47.59375 -50.800781 47.59375 -51.59375 C 46.664062 -52.257812 46.132812 -53.523438 46 -55.390625 C 45.863281 -57.265625 45.726562 -58.46875 45.59375 -59 Z M 9 -40.203125 L 9.796875 -50.40625 C 10.734375 -59.601562 13.535156 -67.46875 18.203125 -74 C 22.734375 -79.46875 29.132812 -82.269531 37.40625 -82.40625 L 38.59375 -82.40625 C 46.332031 -82.40625 51.9375 -80.738281 55.40625 -77.40625 C 59.132812 -74.46875 61.898438 -71.265625 63.703125 -67.796875 C 65.503906 -64.328125 66.671875 -61.789062 67.203125 -60.1875 C 67.734375 -58.59375 68.066406 -56.265625 68.203125 -53.203125 C 68.460938 -47.460938 67.328125 -44.195312 64.796875 -43.40625 C 66.660156 -30.738281 65.53125 -20.671875 61.40625 -13.203125 C 60.070312 -10.128906 58.132812 -6.796875 55.59375 -3.203125 C 53.726562 -0.796875 50.394531 0.535156 45.59375 0.796875 C 40.800781 0.796875 36.632812 0.53125 33.09375 0 C 29.5625 -0.53125 25.660156 -2.226562 21.390625 -5.09375 C 17.128906 -7.96875 14.132812 -12.671875 12.40625 -19.203125 C 10.53125 -25.460938 9.394531 -32.460938 9 -40.203125 Z M 9 -40.203125 "/></g></g></g><g fill="#000000" fill-opacity="1"><g transform="translate(503.694729, 161.74949)"><g><path d="M 32.59375 -56.796875 L 32.40625 -48.40625 L 32.40625 -42 L 32.796875 -34.40625 C 32.796875 -28.800781 33.460938 -22.664062 34.796875 -16 L 35.796875 -14.203125 C 35.796875 -15.671875 36.03125 -16.9375 36.5 -18 C 36.96875 -19.0625 37.203125 -20.328125 37.203125 -21.796875 L 40 -32.203125 C 40 -32.597656 40.332031 -33.460938 41 -34.796875 C 41.53125 -36.128906 42.363281 -38.628906 43.5 -42.296875 C 44.632812 -45.960938 45.332031 -49.160156 45.59375 -51.890625 C 45.863281 -54.628906 46.132812 -56.53125 46.40625 -57.59375 C 46.664062 -58.664062 46.597656 -60.132812 46.203125 -62 L 47.203125 -70.203125 C 47.203125 -72.066406 47.46875 -73.398438 48 -74.203125 C 53.601562 -75.003906 57.269531 -75.46875 59 -75.59375 C 59 -74.800781 59.46875 -73.738281 60.40625 -72.40625 C 60.40625 -71.863281 60.867188 -70.660156 61.796875 -68.796875 L 62.59375 -65.203125 C 63.394531 -63.335938 64.394531 -55.132812 65.59375 -40.59375 C 65.726562 -35.925781 67 -29.460938 69.40625 -21.203125 C 70.070312 -22.265625 70.335938 -23.53125 70.203125 -25 C 71.003906 -25.800781 71.40625 -27.9375 71.40625 -31.40625 L 73.40625 -36.796875 L 77.203125 -57.40625 L 78 -66.203125 L 79.59375 -72.40625 C 79.863281 -74.132812 80.429688 -75.363281 81.296875 -76.09375 C 82.160156 -76.832031 83.59375 -77.132812 85.59375 -77 L 90.59375 -77 C 91.53125 -76.332031 92.800781 -76 94.40625 -76 L 96.796875 -75.40625 C 96.660156 -73.800781 96.53125 -72 96.40625 -70 C 96.269531 -68.394531 95.734375 -64.726562 94.796875 -59 C 93.203125 -39.9375 92.003906 -28.46875 91.203125 -24.59375 C 91.203125 -23.664062 91 -22.9375 90.59375 -22.40625 C 90.46875 -20.53125 89.535156 -15.992188 87.796875 -8.796875 C 87.796875 -7.734375 86.394531 -5.800781 83.59375 -3 C 82.664062 -1.394531 81.269531 -0.394531 79.40625 0 C 78.738281 0.664062 77.46875 1.066406 75.59375 1.203125 C 73.726562 1.460938 71.796875 1.226562 69.796875 0.5 C 67.796875 -0.226562 66.664062 -0.796875 66.40625 -1.203125 C 65.070312 -2.398438 63.40625 -3.265625 61.40625 -3.796875 L 58.40625 -5 C 56.800781 -6.726562 55.863281 -7.726562 55.59375 -8 C 55.0625 -8.800781 54.597656 -10.734375 54.203125 -13.796875 C 53.929688 -13.929688 53.597656 -15.734375 53.203125 -19.203125 C 51.597656 -13.335938 50.796875 -10.070312 50.796875 -9.40625 C 50.128906 -7.132812 49.695312 -5.832031 49.5 -5.5 C 49.300781 -5.164062 49.164062 -4.695312 49.09375 -4.09375 C 49.03125 -3.5 48.863281 -2.9375 48.59375 -2.40625 C 48.59375 -1.601562 48.160156 -0.738281 47.296875 0.1875 C 46.429688 1.125 44.800781 1.863281 42.40625 2.40625 C 40 3.070312 36.863281 3.132812 33 2.59375 L 30.59375 2.796875 C 29.664062 2.796875 28.664062 2.664062 27.59375 2.40625 C 26 1.332031 24.867188 0 24.203125 -1.59375 C 22.597656 -3.863281 21.195312 -6.332031 20 -9 C 19.195312 -9.800781 18.128906 -12.46875 16.796875 -17 C 15.597656 -19.800781 15 -21.398438 15 -21.796875 L 15 -23.59375 C 14.46875 -24.132812 13.898438 -25.738281 13.296875 -28.40625 C 12.703125 -31.070312 12.535156 -33.070312 12.796875 -34.40625 C 12.398438 -34.9375 12.203125 -36.332031 12.203125 -38.59375 C 11.929688 -39.925781 11.796875 -42.0625 11.796875 -45 C 11.398438 -49.9375 10.9375 -53.132812 10.40625 -54.59375 C 10.53125 -56.332031 9.992188 -58.734375 8.796875 -61.796875 C 7.734375 -67.796875 7.398438 -71.265625 7.796875 -72.203125 C 7.398438 -73.265625 7.734375 -74.929688 8.796875 -77.203125 C 8.796875 -77.867188 10.460938 -79.734375 13.796875 -82.796875 C 15.535156 -83.328125 16.9375 -83.289062 18 -82.6875 C 19.0625 -82.09375 20.257812 -81.726562 21.59375 -81.59375 L 28.59375 -79.59375 C 32.46875 -78.53125 34.070312 -74.066406 33.40625 -66.203125 L 32.59375 -58.40625 C 32.59375 -58.269531 32.59375 -58 32.59375 -57.59375 Z M 32.59375 -56.796875 "/></g></g></g><g fill="#000000" fill-opacity="1"><g transform="translate(593.492277, 161.74949)"><g><path d="M 49.40625 -64 C 49.9375 -66 49.867188 -68.53125 49.203125 -71.59375 C 48.265625 -72.394531 47 -72.796875 45.40625 -72.796875 C 43.40625 -72.796875 41.601562 -70.929688 40 -67.203125 C 37.863281 -64.003906 36.265625 -60.46875 35.203125 -56.59375 L 35 -56.59375 C 33.53125 -51 32.796875 -48 32.796875 -47.59375 C 34.929688 -47.0625 36.664062 -46.828125 38 -46.890625 C 39.332031 -46.960938 40.863281 -47.664062 42.59375 -49 C 45.664062 -51.9375 47.9375 -56.9375 49.40625 -64 Z M 48.796875 -35.203125 L 41.40625 -34.59375 C 37.269531 -34.59375 34 -34.992188 31.59375 -35.796875 L 32.203125 -32 C 32.597656 -20.9375 35.664062 -13.671875 41.40625 -10.203125 C 43 -9.535156 44.328125 -9.203125 45.390625 -9.203125 C 46.460938 -9.203125 47.863281 -9.734375 49.59375 -10.796875 C 50.132812 -11.328125 50.601562 -12.0625 51 -13 C 51.132812 -14.195312 51.800781 -14.726562 53 -14.59375 C 58.46875 -21.53125 62.601562 -24.265625 65.40625 -22.796875 C 68.195312 -20.929688 69.59375 -19.46875 69.59375 -18.40625 C 69.59375 -17.863281 69.257812 -17.257812 68.59375 -16.59375 L 68.59375 -15.40625 C 68.59375 -14.070312 67.757812 -11.671875 66.09375 -8.203125 C 64.425781 -4.734375 62.660156 -1.800781 60.796875 0.59375 C 59.867188 2.59375 58.671875 3.992188 57.203125 4.796875 C 52.929688 7.460938 48.394531 8.53125 43.59375 8 C 42.53125 7.863281 41.800781 7.597656 41.40625 7.203125 C 40.332031 6.929688 39.53125 6.863281 39 7 L 37.40625 6.796875 C 36.195312 6.796875 35.195312 6.53125 34.40625 6 C 33.070312 5.195312 32.132812 4.796875 31.59375 4.796875 C 28.132812 3.460938 26.035156 2.460938 25.296875 1.796875 C 24.566406 1.128906 23.929688 0.660156 23.390625 0.390625 C 22.859375 0.128906 21.59375 -1.265625 19.59375 -3.796875 C 17.863281 -5.265625 16.863281 -6.195312 16.59375 -6.59375 C 15.800781 -7.800781 15.101562 -8.671875 14.5 -9.203125 C 13.894531 -9.734375 13.53125 -10.929688 13.40625 -12.796875 C 12.863281 -13.460938 12.59375 -14.332031 12.59375 -15.40625 L 11.796875 -17 C 11.796875 -17.9375 11.394531 -18.671875 10.59375 -19.203125 C 9.800781 -20.003906 9.40625 -21.003906 9.40625 -22.203125 L 9.40625 -23.796875 C 8.863281 -24.066406 8.726562 -24.867188 9 -26.203125 L 9 -31.40625 L 8.796875 -33.203125 L 8.796875 -34.59375 C 8.660156 -35.132812 8.796875 -36.269531 9.203125 -38 L 9 -39.796875 C 9.132812 -39.929688 9.332031 -41 9.59375 -43 C 10.132812 -45.800781 10.738281 -47.535156 11.40625 -48.203125 L 11.40625 -50 C 11.53125 -50.394531 11.59375 -50.925781 11.59375 -51.59375 C 11.59375 -52.257812 11.757812 -52.992188 12.09375 -53.796875 C 12.425781 -54.597656 13.460938 -57.597656 15.203125 -62.796875 L 18.40625 -69.796875 C 19.332031 -71.796875 20.796875 -74 22.796875 -76.40625 C 22.929688 -77.070312 23.46875 -78.269531 24.40625 -80 L 27 -82.40625 C 27.800781 -83.601562 29 -84.46875 30.59375 -85 C 32.46875 -85.9375 33.867188 -86.40625 34.796875 -86.40625 L 40.40625 -87.203125 C 41.070312 -87.066406 41.535156 -87 41.796875 -87 L 44.40625 -87 C 47.332031 -86.726562 49.726562 -86.128906 51.59375 -85.203125 C 55.59375 -84.003906 58.53125 -82.46875 60.40625 -80.59375 C 64.53125 -75.925781 66.59375 -71.457031 66.59375 -67.1875 C 66.59375 -62.925781 65.925781 -59.265625 64.59375 -56.203125 C 61.257812 -48.597656 58.863281 -43.796875 57.40625 -41.796875 C 55 -37.398438 52.128906 -35.203125 48.796875 -35.203125 Z M 48.796875 -35.203125 "/></g></g></g><g fill="#000000" fill-opacity="1"><g transform="translate(653.890665, 161.74949)"><g><path d="M 10.40625 -59 C 10.40625 -60.195312 10.269531 -61.597656 10 -63.203125 L 10 -64.59375 C 10.132812 -65.53125 10.066406 -66.53125 9.796875 -67.59375 C 9.796875 -68.925781 9.929688 -70.128906 10.203125 -71.203125 C 10.203125 -73.867188 10.535156 -75.601562 11.203125 -76.40625 C 11.203125 -77.070312 12.132812 -78.601562 14 -81 C 14.53125 -81.53125 15.53125 -82.394531 17 -83.59375 C 19.132812 -84.257812 20.601562 -84.660156 21.40625 -84.796875 C 21.9375 -85.328125 23.734375 -85.128906 26.796875 -84.203125 C 28.128906 -84.066406 30.195312 -83.597656 33 -82.796875 C 33.9375 -82.535156 35.132812 -81.46875 36.59375 -79.59375 C 36.332031 -79.0625 35.898438 -77.09375 35.296875 -73.6875 C 34.703125 -70.289062 34.46875 -67.53125 34.59375 -65.40625 C 35.394531 -66.070312 36.796875 -67.46875 38.796875 -69.59375 C 40.796875 -71.726562 41.863281 -72.863281 42 -73 C 45.46875 -74.601562 48.867188 -75.738281 52.203125 -76.40625 C 57.003906 -76.800781 60.132812 -76.46875 61.59375 -75.40625 C 62.800781 -75 63.738281 -74.394531 64.40625 -73.59375 C 65.601562 -72.53125 66.597656 -70.695312 67.390625 -68.09375 C 68.191406 -65.5 68.128906 -63.867188 67.203125 -63.203125 C 66.398438 -62.535156 63.734375 -62 59.203125 -61.59375 C 58.929688 -61.59375 58 -61.0625 56.40625 -60 L 46 -51.796875 C 43.863281 -50.734375 42.394531 -49.800781 41.59375 -49 L 37.796875 -42 C 37.660156 -41.726562 37.523438 -39.992188 37.390625 -36.796875 C 37.265625 -33.597656 37.265625 -31.296875 37.390625 -29.890625 C 37.523438 -28.492188 37.53125 -24 37.40625 -16.40625 L 37.40625 -7.796875 C 37.40625 -3.128906 37.335938 -0.429688 37.203125 0.296875 C 37.066406 1.035156 36.53125 2.335938 35.59375 4.203125 C 35.195312 4.867188 33.929688 5.203125 31.796875 5.203125 C 26.597656 9.066406 23.265625 8.863281 21.796875 4.59375 L 19.203125 3 C 18.128906 2.46875 17.460938 1.800781 17.203125 1 C 16.128906 -0.46875 15.59375 -1.332031 15.59375 -1.59375 L 14.796875 -4.40625 L 13.59375 -6.796875 C 13.195312 -6.929688 12.863281 -9.5 12.59375 -14.5 C 12.332031 -19.5 12.203125 -22.566406 12.203125 -23.703125 C 12.203125 -24.835938 12.066406 -26.070312 11.796875 -27.40625 C 12.734375 -28.332031 13.164062 -29.925781 13.09375 -32.1875 C 13.03125 -34.457031 12.863281 -36.226562 12.59375 -37.5 C 12.332031 -38.769531 12.332031 -39.570312 12.59375 -39.90625 C 12.863281 -40.238281 12.800781 -42.070312 12.40625 -45.40625 C 12 -45.9375 11.929688 -46.9375 12.203125 -48.40625 Z M 10.40625 -59 "/></g></g></g></svg>